<svg width="23" height="22" viewBox="0 0 23 22" fill="none" xmlns="http://www.w3.org/2000/svg">
<path fill-rule="evenodd" clip-rule="evenodd" d="M7.94576 2H16.0111C18.7502 2 20.9786 4.22841 20.9785 6.96735V15.0327C20.9785 17.7716 18.7502 20 16.0111 20H7.94576C5.20682 20 2.97852 17.7717 2.97852 15.0327V6.96735C2.97852 4.22841 5.20682 2 7.94576 2ZM16.0112 18.403C17.8696 18.403 19.3816 16.8911 19.3816 15.0326H19.3815V6.96735C19.3815 5.10903 17.8695 3.59705 16.0111 3.59705H7.94576C6.08743 3.59705 4.57556 5.10903 4.57556 6.96735V15.0326C4.57556 16.8911 6.08743 18.4031 7.94576 18.403H16.0112ZM7.26423 11.0001C7.26423 8.40055 9.37902 6.28571 11.9785 6.28571C14.578 6.28571 16.6928 8.40055 16.6928 11.0001C16.6928 13.5996 14.578 15.7143 11.9785 15.7143C9.37902 15.7143 7.26423 13.5996 7.26423 11.0001ZM8.88749 11C8.88749 12.7044 10.2742 14.0909 11.9785 14.0909C13.6828 14.0909 15.0695 12.7044 15.0695 11C15.0695 9.29553 13.6829 7.90891 11.9785 7.90891C10.2741 7.90891 8.88749 9.29553 8.88749 11Z" fill="#7A7A7A"/>
<mask id="mask0" mask-type="alpha" maskUnits="userSpaceOnUse" x="2" y="2" width="19" height="18">
<path fill-rule="evenodd" clip-rule="evenodd" d="M7.94576 2H16.0111C18.7502 2 20.9786 4.22841 20.9785 6.96735V15.0327C20.9785 17.7716 18.7502 20 16.0111 20H7.94576C5.20682 20 2.97852 17.7717 2.97852 15.0327V6.96735C2.97852 4.22841 5.20682 2 7.94576 2ZM16.0112 18.403C17.8696 18.403 19.3816 16.8911 19.3816 15.0326H19.3815V6.96735C19.3815 5.10903 17.8695 3.59705 16.0111 3.59705H7.94576C6.08743 3.59705 4.57556 5.10903 4.57556 6.96735V15.0326C4.57556 16.8911 6.08743 18.4031 7.94576 18.403H16.0112ZM7.26423 11.0001C7.26423 8.40055 9.37902 6.28571 11.9785 6.28571C14.578 6.28571 16.6928 8.40055 16.6928 11.0001C16.6928 13.5996 14.578 15.7143 11.9785 15.7143C9.37902 15.7143 7.26423 13.5996 7.26423 11.0001ZM8.88749 11C8.88749 12.7044 10.2742 14.0909 11.9785 14.0909C13.6828 14.0909 15.0695 12.7044 15.0695 11C15.0695 9.29553 13.6829 7.90891 11.9785 7.90891C10.2741 7.90891 8.88749 9.29553 8.88749 11Z" fill="white"/>
</mask>
<g mask="url(#mask0)">
</g>
</svg>
