<svg width="23" height="22" viewBox="0 0 23 22" fill="none" xmlns="http://www.w3.org/2000/svg">
<path fill-rule="evenodd" clip-rule="evenodd" d="M13.4771 19V11.7022H15.9735L16.3481 8.85725H13.4771V7.04118C13.4771 6.21776 13.7093 5.65661 14.9145 5.65661L16.4491 5.65599V3.11138C16.1837 3.07756 15.2727 3 14.2124 3C11.9983 3 10.4825 4.32557 10.4825 6.75942V8.85725H7.97852V11.7022H10.4825V19H13.4771Z" fill="#7A7A7A"/>
<mask id="mask0" mask-type="alpha" maskUnits="userSpaceOnUse" x="7" y="3" width="10" height="16">
<path fill-rule="evenodd" clip-rule="evenodd" d="M13.4771 19V11.7022H15.9735L16.3481 8.85725H13.4771V7.04118C13.4771 6.21776 13.7093 5.65661 14.9145 5.65661L16.4491 5.65599V3.11138C16.1837 3.07756 15.2727 3 14.2124 3C11.9983 3 10.4825 4.32557 10.4825 6.75942V8.85725H7.97852V11.7022H10.4825V19H13.4771Z" fill="white"/>
</mask>
<g mask="url(#mask0)">
</g>
</svg>
