<svg width="23" height="22" viewBox="0 0 23 22" fill="none" xmlns="http://www.w3.org/2000/svg">
<path fill-rule="evenodd" clip-rule="evenodd" d="M11.9785 9.6V12.4H15.9391C15.3609 14.0296 13.8041 15.2 11.9785 15.2C9.66292 15.2 7.77852 13.3156 7.77852 11C7.77852 8.6844 9.66292 6.8 11.9785 6.8C12.9823 6.8 13.9483 7.1598 14.6987 7.8136L16.5383 5.7024C15.2783 4.6048 13.6599 4 11.9785 4C8.11872 4 4.97852 7.1402 4.97852 11C4.97852 14.8598 8.11872 18 11.9785 18C15.8383 18 18.9785 14.8598 18.9785 11V9.6H11.9785Z" fill="#7A7A7A"/>
<mask id="mask0" mask-type="alpha" maskUnits="userSpaceOnUse" x="4" y="4" width="15" height="14">
<path fill-rule="evenodd" clip-rule="evenodd" d="M11.9785 9.6V12.4H15.9391C15.3609 14.0296 13.8041 15.2 11.9785 15.2C9.66292 15.2 7.77852 13.3156 7.77852 11C7.77852 8.6844 9.66292 6.8 11.9785 6.8C12.9823 6.8 13.9483 7.1598 14.6987 7.8136L16.5383 5.7024C15.2783 4.6048 13.6599 4 11.9785 4C8.11872 4 4.97852 7.1402 4.97852 11C4.97852 14.8598 8.11872 18 11.9785 18C15.8383 18 18.9785 14.8598 18.9785 11V9.6H11.9785Z" fill="white"/>
</mask>
<g mask="url(#mask0)">
</g>
</svg>
