<svg width="120" height="25" viewBox="0 0 120 25" fill="none" xmlns="http://www.w3.org/2000/svg">
<path fill-rule="evenodd" clip-rule="evenodd" d="M92.3716 14.353L99.8313 18.5853V20.6094C96.7922 20.6094 93.753 20.6094 90.7139 20.6094V21.8975C90.7139 22.6335 90.9902 23.2776 91.4506 23.7376C91.9111 24.1977 92.6479 24.4737 93.2925 24.4737H101.121C102.594 24.4737 103.699 23.2776 103.699 21.8975V18.2172C103.699 17.0212 103.055 16.0091 102.042 15.3651L94.5819 11.1328V9.10862C97.621 9.10862 100.66 9.10862 103.699 9.10862V7.82053C103.699 6.34843 102.502 5.24435 101.121 5.24435H93.2925C92.5558 5.24435 91.9111 5.52037 91.4506 5.98041C90.9902 6.44044 90.7139 7.17649 90.7139 7.82053V11.5008C90.7139 12.6969 91.3585 13.7089 92.3716 14.353Z" fill="white"/>
<path fill-rule="evenodd" clip-rule="evenodd" d="M74.5051 21.8975V7.82053C74.5051 7.08448 74.7814 6.44044 75.2419 5.98041C75.7024 5.52037 76.4391 5.24435 77.0838 5.24435H86.7538V9.20063H84.1751H78.4652V12.8809H85.5566V16.8372H78.4652V20.6094H84.1751H86.7538V24.5657H77.1759C76.4391 24.5657 75.7945 24.2897 75.334 23.8296C74.7814 23.2776 74.5051 22.6336 74.5051 21.8975Z" fill="white"/>
<path fill-rule="evenodd" clip-rule="evenodd" d="M56.27 24.4737V5.15236H66.6768C67.4135 5.15236 68.0582 5.42838 68.5187 5.88841C68.9791 6.34844 69.2554 7.08449 69.2554 7.72854V15.6411C69.2554 16.3771 68.9791 17.0212 68.5187 17.4812C68.0582 17.9412 67.3214 18.2173 66.6768 18.2173H66.2163L69.4396 24.4737H65.3874L60.138 14.261H65.3874V9.10863H60.138V14.353V18.3093V24.5657H56.27V24.4737Z" fill="white"/>
<path fill-rule="evenodd" clip-rule="evenodd" d="M47.6133 14.353V9.10863H42.3638V14.353H47.6133ZM38.4958 24.4737V5.15236H48.9026C49.6394 5.15236 50.284 5.42838 50.7445 5.88841C51.2971 6.44045 51.5734 7.1765 51.5734 7.82054V15.6411C51.5734 16.3771 51.2971 17.0212 50.8366 17.4812C50.3761 17.9412 49.6394 18.2173 48.9947 18.2173H42.4559V24.4737H38.4958Z" fill="white"/>
<path fill-rule="evenodd" clip-rule="evenodd" d="M19.5241 6.62446L23.8526 15.181L28.181 6.62446C28.5494 5.7044 29.4704 5.24437 30.3913 5.24437H33.2463V24.5657H29.2862V12.4209L23.7605 23.2776L18.2347 12.4209V24.4737H14.2747V5.15236H17.1296C18.2348 5.24437 19.0636 5.7044 19.5241 6.62446Z" fill="white"/>
<path d="M9.2096 5.24435H5.24951V24.5657H9.2096V5.24435Z" fill="white"/>
<path d="M5.24942 0H0V5.24436H5.24942V0Z" fill="white"/>
<path fill-rule="evenodd" clip-rule="evenodd" d="M108.58 14.353L116.04 18.5853V20.6094C113.001 20.6094 109.962 20.6094 106.922 20.6094V21.8975C106.922 22.6335 107.199 23.2776 107.659 23.7376C108.12 24.1977 108.856 24.4737 109.501 24.4737H117.329C118.803 24.4737 119.908 23.2776 119.908 21.8975V18.2172C119.908 17.0212 119.263 16.0091 118.25 15.3651L110.79 11.1328V9.10862C113.83 9.10862 116.869 9.10862 119.908 9.10862V7.82053C119.908 6.34843 118.711 5.24435 117.329 5.24435H109.501C108.764 5.24435 108.12 5.52037 107.659 5.98041C107.199 6.44044 106.922 7.17649 106.922 7.82053V11.5008C106.922 12.6969 107.567 13.7089 108.58 14.353Z" fill="white"/>
</svg>
