<svg width="147" height="30" viewBox="0 0 147 30" fill="none" xmlns="http://www.w3.org/2000/svg">
<g clip-path="url(#clip0)">
<path fill-rule="evenodd" clip-rule="evenodd" d="M113.008 17.594L122.134 22.782V25.2632C118.416 25.2632 114.698 25.2632 110.979 25.2632V26.8421C110.979 27.7444 111.318 28.5338 111.881 29.0978C112.444 29.6617 113.346 30 114.134 30H123.711C125.514 30 126.866 28.5338 126.866 26.8421V22.3308C126.866 20.8647 126.077 19.6241 124.838 18.8346L115.712 13.6466V11.1654C119.43 11.1654 123.148 11.1654 126.866 11.1654V9.58648C126.866 7.78197 125.401 6.42859 123.711 6.42859H114.134C113.233 6.42859 112.444 6.76693 111.881 7.33084C111.318 7.89475 110.979 8.79701 110.979 9.58648V14.0978C110.979 15.5639 111.768 16.8045 113.008 17.594Z" fill="#202222"/>
<path fill-rule="evenodd" clip-rule="evenodd" d="M91.1497 26.8421V9.58648C91.1497 8.68423 91.4877 7.89475 92.051 7.33084C92.6144 6.76693 93.5157 6.42859 94.3044 6.42859H106.135V11.2782H102.98H95.9944V15.7895H104.67V20.6391H95.9944V25.2632H102.98H106.135V30.1128H94.4171C93.5157 30.1128 92.727 29.7745 92.1637 29.2105C91.4877 28.5339 91.1497 27.7444 91.1497 26.8421Z" fill="#202222"/>
<path fill-rule="evenodd" clip-rule="evenodd" d="M68.8411 30V6.3158H81.5727C82.4741 6.3158 83.2628 6.65414 83.8261 7.21805C84.3895 7.78196 84.7275 8.68422 84.7275 9.47369V19.1729C84.7275 20.0752 84.3895 20.8647 83.8261 21.4286C83.2628 21.9925 82.3614 22.3308 81.5727 22.3308H81.0094L84.9528 30H79.9954L73.5732 17.4812H79.9954V11.1654H73.5732V17.594V22.4436V30.1128H68.8411V30Z" fill="#202222"/>
<path fill-rule="evenodd" clip-rule="evenodd" d="M58.2502 17.594V11.1654H51.8281V17.594H58.2502ZM47.0959 30V6.3158H59.8276C60.729 6.3158 61.5177 6.65414 62.081 7.21805C62.757 7.89474 63.095 8.797 63.095 9.58647V19.1729C63.095 20.0752 62.757 20.8647 62.1937 21.4286C61.6303 21.9925 60.729 22.3308 59.9403 22.3308H51.9407V30H47.0959Z" fill="#202222"/>
<path fill-rule="evenodd" clip-rule="evenodd" d="M23.886 8.12031L29.1815 18.609L34.477 8.12031C34.9277 6.99249 36.0544 6.42858 37.181 6.42858H40.6738V30.1128H35.829V15.2256L29.0688 28.5338L22.3087 15.2256V30H17.4639V6.3158H20.9566C22.3087 6.42858 23.3227 6.99249 23.886 8.12031Z" fill="#202222"/>
<path d="M11.2669 6.42859H6.42212V30.1128H11.2669V6.42859Z" fill="#202222"/>
<path d="M6.42217 0H0V6.42857H6.42217V0Z" fill="#202222"/>
<path fill-rule="evenodd" clip-rule="evenodd" d="M132.837 17.594L141.964 22.782V25.2632C138.246 25.2632 134.527 25.2632 130.809 25.2632V26.8421C130.809 27.7444 131.147 28.5338 131.711 29.0978C132.274 29.6617 133.175 30 133.964 30H143.541C145.344 30 146.696 28.5338 146.696 26.8421V22.3308C146.696 20.8647 145.907 19.6241 144.668 18.8346L135.541 13.6466V11.1654C139.26 11.1654 142.978 11.1654 146.696 11.1654V9.58648C146.696 7.78197 145.231 6.42859 143.541 6.42859H133.964C133.063 6.42859 132.274 6.76693 131.711 7.33084C131.147 7.89475 130.809 8.79701 130.809 9.58648V14.0978C130.809 15.5639 131.598 16.8045 132.837 17.594Z" fill="#202222"/>
</g>
<defs>
<clipPath id="clip0">
<rect width="146.809" height="30" fill="white"/>
</clipPath>
</defs>
</svg>
